<svg xmlns="http://www.w3.org/2000/svg" width="21" height="20" viewBox="0 0 21 20" fill="none">
  <mask id="mask0_232_450" style="mask-type:alpha" maskUnits="userSpaceOnUse" x="0" y="0" width="21" height="20">
    <rect x="0.5" width="20" height="20" fill="#D9D9D9"/>
  </mask>
  <g mask="url(#mask0_232_450)">
    <path d="M9.71094 17.1771C8.23199 17.1771 6.8899 16.811 5.68466 16.0788C4.47943 15.3466 3.53407 14.3655 2.84857 13.1355V15.3976H1.71094V11.2263H5.88231V12.3639H3.72803C4.27644 13.4685 5.0869 14.3573 6.1594 15.0301C7.23191 15.703 8.41576 16.0394 9.71094 16.0394C10.6395 16.0394 11.5105 15.8678 12.3239 15.5246C13.1373 15.1814 13.8493 14.7129 14.4599 14.1193C15.0705 13.5257 15.5608 12.8246 15.9308 12.0161C16.3008 11.2076 16.5004 10.3366 16.5295 9.40317H17.6672C17.6429 10.4805 17.4175 11.4908 16.9911 12.434C16.5648 13.3771 15.993 14.2012 15.2759 14.9062C14.5588 15.6111 13.7226 16.1658 12.7673 16.5703C11.8119 16.9748 10.7932 17.1771 9.71094 17.1771ZM9.17421 14.3767V13.4199C8.619 13.2906 8.15738 13.0602 7.78935 12.7286C7.42131 12.397 7.13908 11.9497 6.94267 11.3868L7.90236 10.9959C8.08322 11.4898 8.34211 11.8652 8.67903 12.1218C9.01595 12.3786 9.39784 12.5069 9.8247 12.5069C10.2564 12.5069 10.6439 12.3992 10.9872 12.1838C11.3304 11.9685 11.502 11.623 11.502 11.1475C11.502 10.7518 11.3545 10.4365 11.0594 10.2017C10.7643 9.96686 10.2137 9.70165 9.40758 9.40607C8.62775 9.12603 8.06524 8.81244 7.72007 8.46531C7.37488 8.11818 7.20228 7.65972 7.20228 7.08992C7.20228 6.60083 7.37877 6.15307 7.73173 5.74662C8.08469 5.34018 8.57816 5.08105 9.21213 4.96923V4.05037H10.2477V4.96923C10.6735 5.0023 11.0656 5.16249 11.424 5.44981C11.7823 5.73714 12.0407 6.08257 12.1992 6.4861L11.2628 6.86237C11.1325 6.58138 10.9463 6.34777 10.7042 6.16156C10.4621 5.97535 10.1436 5.88225 9.74886 5.88225C9.27727 5.88225 8.90753 5.99407 8.63965 6.21772C8.37176 6.44136 8.23781 6.73209 8.23781 7.08992C8.23781 7.44775 8.36859 7.72633 8.63015 7.92566C8.89171 8.12499 9.42116 8.36079 10.2185 8.63305C11.1286 8.96171 11.7402 9.33023 12.0533 9.73862C12.3664 10.147 12.523 10.6166 12.523 11.1475C12.523 11.5093 12.4561 11.8267 12.3224 12.1C12.1887 12.3732 12.0139 12.6029 11.7981 12.7891C11.5822 12.9753 11.3365 13.1224 11.0608 13.2303C10.7851 13.3382 10.5014 13.4141 10.2097 13.4578V14.3767H9.17421ZM1.7547 9.02391C1.78874 7.92225 2.02138 6.89861 2.45261 5.95299C2.88384 5.00739 3.46044 4.18455 4.18241 3.48446C4.90439 2.78438 5.73939 2.23694 6.68742 1.84217C7.63546 1.44739 8.6433 1.25 9.71094 1.25C11.1753 1.25 12.5174 1.61731 13.7372 2.35193C14.957 3.08655 15.9024 4.07617 16.5733 5.3208V3.02944H17.7109V7.20079H13.5396V6.06317H15.6938C15.16 4.97801 14.3556 4.09413 13.2807 3.41154C12.2058 2.72893 11.0158 2.38763 9.71094 2.38763C8.80179 2.38763 7.94175 2.55682 7.1308 2.8952C6.31987 3.23357 5.60665 3.69714 4.99115 4.2859C4.37565 4.87466 3.87927 5.57329 3.502 6.38179C3.12473 7.19031 2.92151 8.07101 2.89233 9.02391H1.7547Z" fill="#2D46AB"/>
  </g>
</svg>