<svg xmlns="http://www.w3.org/2000/svg" width="21" height="20" viewBox="0 0 21 20" fill="none">
  <mask id="mask0_232_444" style="mask-type:alpha" maskUnits="userSpaceOnUse" x="0" y="0" width="21" height="20">
    <rect x="0.666687" width="20" height="20" fill="#D9D9D9"/>
  </mask>
  <g mask="url(#mask0_232_444)">
    <path d="M5.39168 16.5C4.80558 16.5 4.30795 16.2825 3.89881 15.8474C3.48967 15.4123 3.2851 14.884 3.2851 14.2625H2.01434V5.94063C2.01434 5.53807 2.14575 5.19732 2.40857 4.91839C2.67138 4.63946 2.99244 4.5 3.37173 4.5H13.5956V7.5345H15.5883L18.0143 10.9828V14.2625H16.657C16.657 14.884 16.4518 15.4123 16.0415 15.8474C15.6312 16.2825 15.1331 16.5 14.5469 16.5C13.9608 16.5 13.4632 16.2825 13.0541 15.8474C12.6449 15.4123 12.4403 14.884 12.4403 14.2625H7.50169C7.50169 14.8857 7.29655 15.4144 6.88626 15.8487C6.476 16.2829 5.9778 16.5 5.39168 16.5ZM5.39339 15.3046C5.66872 15.3046 5.90122 15.204 6.09087 15.0027C6.28052 14.8014 6.37535 14.5547 6.37535 14.2625C6.37535 13.9702 6.28052 13.7235 6.09087 13.5222C5.90122 13.3209 5.66872 13.2203 5.39339 13.2203C5.11805 13.2203 4.88555 13.3209 4.6959 13.5222C4.50624 13.7235 4.41142 13.9702 4.41142 14.2625C4.41142 14.5547 4.50624 14.8014 4.6959 15.0027C4.88555 15.204 5.11805 15.3046 5.39339 15.3046ZM3.14068 13.0671H3.68364C3.84343 12.7718 4.07424 12.5243 4.37605 12.3245C4.67786 12.1248 5.01698 12.0249 5.39339 12.0249C5.76018 12.0249 6.09689 12.1235 6.40351 12.3207C6.71013 12.5179 6.94334 12.7667 7.10314 13.0671H12.4692V5.69539H3.37173C3.31398 5.69539 3.26103 5.72093 3.21288 5.77201C3.16475 5.82311 3.14068 5.87932 3.14068 5.94063V13.0671ZM14.5487 15.3046C14.824 15.3046 15.0565 15.204 15.2461 15.0027C15.4358 14.8014 15.5306 14.5547 15.5306 14.2625C15.5306 13.9702 15.4358 13.7235 15.2461 13.5222C15.0565 13.3209 14.824 13.2203 14.5487 13.2203C14.2733 13.2203 14.0408 13.3209 13.8512 13.5222C13.6615 13.7235 13.5667 13.9702 13.5667 14.2625C13.5667 14.5547 13.6615 14.8014 13.8512 15.0027C14.0408 15.204 14.2733 15.3046 14.5487 15.3046ZM13.5956 11.4732H16.9602L15.0107 8.72987H13.5956V11.4732Z" fill="#2D46AB"/>
  </g>
</svg>