<svg width="25" height="24" viewBox="0 0 25 24" fill="none" xmlns="http://www.w3.org/2000/svg">
<g id="lock">
<mask id="mask0_95_2563" style="mask-type:alpha" maskUnits="userSpaceOnUse" x="0" y="0" width="25" height="24">
<rect id="Bounding box" x="0.5" width="24" height="24" fill="#D9D9D9"/>
</mask>
<g mask="url(#mask0_95_2563)">
<path id="lock_2" d="M6.8077 21.4999C6.30898 21.4999 5.88302 21.3233 5.52982 20.9701C5.17661 20.6169 5 20.1909 5 19.6922V10.3077C5 9.80893 5.17661 9.38297 5.52982 9.02977C5.88302 8.67656 6.30898 8.49995 6.8077 8.49995H8V6.49995C8 5.25125 8.43782 4.18908 9.31345 3.31345C10.1891 2.43782 11.2513 2 12.5 2C13.7487 2 14.8108 2.43782 15.6865 3.31345C16.5621 4.18908 17 5.25125 17 6.49995V8.49995H18.1922C18.691 8.49995 19.1169 8.67656 19.4701 9.02977C19.8233 9.38297 20 9.80893 20 10.3077V19.6922C20 20.1909 19.8233 20.6169 19.4701 20.9701C19.1169 21.3233 18.691 21.4999 18.1922 21.4999H6.8077ZM6.8077 19.9999H18.1922C18.282 19.9999 18.3557 19.9711 18.4134 19.9134C18.4711 19.8557 18.5 19.7819 18.5 19.6922V10.3077C18.5 10.2179 18.4711 10.1442 18.4134 10.0865C18.3557 10.0288 18.282 9.99993 18.1922 9.99993H6.8077C6.71795 9.99993 6.64423 10.0288 6.58652 10.0865C6.52882 10.1442 6.49997 10.2179 6.49997 10.3077V19.6922C6.49997 19.7819 6.52882 19.8557 6.58652 19.9134C6.64423 19.9711 6.71795 19.9999 6.8077 19.9999ZM12.5 16.7499C12.9859 16.7499 13.399 16.5797 13.7394 16.2393C14.0798 15.899 14.25 15.4858 14.25 14.9999C14.25 14.514 14.0798 14.1009 13.7394 13.7605C13.399 13.4201 12.9859 13.25 12.5 13.25C12.0141 13.25 11.6009 13.4201 11.2606 13.7605C10.9202 14.1009 10.75 14.514 10.75 14.9999C10.75 15.4858 10.9202 15.899 11.2606 16.2393C11.6009 16.5797 12.0141 16.7499 12.5 16.7499ZM9.49997 8.49995H15.5V6.49995C15.5 5.66662 15.2083 4.95828 14.625 4.37495C14.0416 3.79162 13.3333 3.49995 12.5 3.49995C11.6666 3.49995 10.9583 3.79162 10.375 4.37495C9.79164 4.95828 9.49997 5.66662 9.49997 6.49995V8.49995Z" fill="white"/>
</g>
</g>
</svg>
