<svg xmlns="http://www.w3.org/2000/svg" width="73.518" height="73.268" viewBox="0 0 73.518 73.268">
  <g id="Logo" transform="translate(0.238 0.25)">
    <g id="Layer_1" data-name="Layer 1">
      <path id="Path_387" data-name="Path 387" d="M74.393,70.472a38.383,38.383,0,0,0-2.9-3.017c.129-.1.283-.236.436-.372.274-.246.826-.8,1.44-1.351a4.126,4.126,0,0,1,2.956-1.383,2.9,2.9,0,0,1,1.981.974c1.369,1.526,1,3.558-.581,4.954-.14-.089-.478-.312-.62-.381,1-.979,1.51-2.311.393-3.556a2.23,2.23,0,0,0-2.189-.808,3.155,3.155,0,0,0-1.6.847,4.267,4.267,0,0,0-.62.655c-.045.059-.026.082.14.265l3.841,4.274c1.194,1.33,2.4,2.589,2.863,3.015a5.28,5.28,0,0,0-.534.44,5.81,5.81,0,0,0-.562.564c-.335-.461-1.466-1.809-2.727-3.216Z" transform="translate(-59.01 -53.119)" fill="#3d5065" stroke="#3d5065" stroke-width="0.5"/>
      <path id="Path_388" data-name="Path 388" d="M130.534,37.27a6.151,6.151,0,0,0,.822-.328c.072.391.5,1.767,1.061,3.416l.552,1.608c.524,1.526,1.084,2.025,1.746,2.3a3,3,0,0,0,2.051-.058,2.681,2.681,0,0,0,1.549-1.206c.374-.819.239-1.711-.227-3.071l-.466-1.362a31.017,31.017,0,0,0-1.294-3.317,3.787,3.787,0,0,0,.538-.154,4.752,4.752,0,0,0,.627-.262c.072.391.47,1.775,1.034,3.425l.463,1.348c.466,1.362.784,2.7.04,3.935a3.971,3.971,0,0,1-2.243,1.582,4.224,4.224,0,0,1-2.847.1c-.773-.333-1.465-.934-2.043-2.633l-.632-1.842a28.644,28.644,0,0,0-1.294-3.317A3.25,3.25,0,0,0,130.534,37.27Z" transform="translate(-107.28 -28.761)" fill="#3d5065" stroke="#3d5065" stroke-width="0.5"/>
      <path id="Path_389" data-name="Path 389" d="M202.738,35.323a19.718,19.718,0,0,0,.063-3.563,4.953,4.953,0,0,0,.644.07c.251.016,1.283.023,1.755.052a4.756,4.756,0,0,1,2.294.6,2.333,2.333,0,0,1,1.018,2.095,3.073,3.073,0,0,1-1.746,2.51c.758,1.1,1.606,2.374,2.43,3.357a4.748,4.748,0,0,0,1.128,1.077,3,3,0,0,1-.889.045,1.741,1.741,0,0,1-1.428-.761,35.24,35.24,0,0,1-2.285-3.3.216.216,0,0,0-.175-.1l-1.692-.106c-.044,0-.058,0-.061.04l-.009.4c-.1,1.538-.122,2.861-.1,3.416a3.519,3.519,0,0,0-.6-.068,6.3,6.3,0,0,0-.826,0c.087-.447.244-1.98.349-3.575Zm1.126,1.077c0,.072.01.087.038.089a9.124,9.124,0,0,0,1.554.2,1.209,1.209,0,0,0,.746-.1,2.174,2.174,0,0,0,1.075-1.767,2.04,2.04,0,0,0-2.175-2.235,5.212,5.212,0,0,0-.945,0c-.045.012-.045.026-.049.086Z" transform="translate(-166.95 -26.218)" fill="#3d5065" stroke="#3d5065" stroke-width="0.5"/>
      <path id="Path_390" data-name="Path 390" d="M252.679,45.389a29.541,29.541,0,0,0,1.494-3.219c.112.073.367.22.564.321.3.154,1.047.47,1.837.873a6.792,6.792,0,0,1,3.666,3.525,4.3,4.3,0,0,1-.339,3.383,4.8,4.8,0,0,1-2.751,2.406,5.715,5.715,0,0,1-4.328-.594c-.485-.248-.918-.5-1.311-.735a10.237,10.237,0,0,0-1.521-.873c.257-.44.826-1.423,1.666-3.067Zm.255,2.163c-.6,1.177-1.032,2.051-1.171,2.355-.131.26-.145.349-.126.409a4.882,4.882,0,0,0,1.625,1.157,4.376,4.376,0,0,0,2.863.524,3.887,3.887,0,0,0,2.49-2.095,4.189,4.189,0,0,0,.457-2.868,5.117,5.117,0,0,0-2.9-3.064,5.449,5.449,0,0,0-1.075-.452.082.082,0,0,0-.092.051c-.126.213-.655,1.222-1.222,2.331Z" transform="translate(-206.348 -34.811)" fill="#3d5065" stroke="#3d5065" stroke-width="0.5"/>
      <path id="Path_391" data-name="Path 391" d="M308.967,84.33a1.222,1.222,0,0,0,.393-.571c.307-.873.99-3.127,1.206-3.856a15.024,15.024,0,0,0,.443-2.112,4.8,4.8,0,0,0,.436.56,8.279,8.279,0,0,0,.663.7c-.11.25-.361.894-.524,1.339-.12.395-1.048,3.256-1.173,3.666.976-.159,3.34-.6,3.98-.723.314-.058.883-.2,1.138-.281a2.559,2.559,0,0,0,.276.365,5.157,5.157,0,0,0,.6.63,20.056,20.056,0,0,0-2,.189c-.66.1-3.291.5-4.071.7a1.379,1.379,0,0,0-.6.3c-1.178,1.014-2.208,1.978-2.575,2.353a3.2,3.2,0,0,0-.372-.477,6.641,6.641,0,0,0-.573-.6A26.7,26.7,0,0,0,308.967,84.33Z" transform="translate(-252.753 -64.212)" fill="#3d5065" stroke="#3d5065" stroke-width="0.5"/>
      <path id="Path_392" data-name="Path 392" d="M180.91,179.807c0-1.693,1.117-2.985,2.654-4.068a4.018,4.018,0,0,1-.751-2.287c0-1.606,1.135-3.142,3.631-3.142a4.575,4.575,0,0,1,2.5.611,10.642,10.642,0,0,0-.21,1.414,3.057,3.057,0,0,0-2.393-1.032,1.983,1.983,0,0,0-2.112,2.06c0,1.082.524,1.973,2.636,4.242a39.615,39.615,0,0,0,2.933,2.88,11.514,11.514,0,0,0,1.606-4.452,8.2,8.2,0,0,0,1.449.3,12.81,12.81,0,0,1-2.235,4.853,11.536,11.536,0,0,0,3.561,2.339,2.261,2.261,0,0,1-1.5.367c-.943.017-2.025-.768-3.055-1.606A6.007,6.007,0,0,1,185.482,184,4.261,4.261,0,0,1,180.91,179.807Zm7.908,1.763a41.635,41.635,0,0,1-4.714-5.045,3.64,3.64,0,0,0-1.711,2.968,3.253,3.253,0,0,0,3.439,3.282A4.168,4.168,0,0,0,188.818,181.57Z" transform="translate(-149.327 -140.581)" fill="#3d5065" stroke="#3d5065" stroke-width="0.5"/>
      <path id="Path_393" data-name="Path 393" d="M108.081,309.477a32.175,32.175,0,0,0,2.285-3.526c.2.155.48.372.723.541l2.84,1.983a8.656,8.656,0,0,0,.988.6c-.257.264-.581.676-.742.882a3.475,3.475,0,0,0-.827-.808c-.36-.286-1.208-.932-2.252-1.662-.012-.009-.044-.012-.07.023-.735,1.028-1.547,2.163-2.27,3.2-.033.047-.03.068,0,.093.157.11,1.671,1.151,2.02,1.376a5.459,5.459,0,0,0,1.089.637,9.676,9.676,0,0,0-.789.922,2.345,2.345,0,0,0-.7-.716c-.414-.321-1.266-.955-2.116-1.549-.024-.016-.044-.012-.079.035l-.539.775c-.574.821-2.095,3.106-2.306,3.53a5.84,5.84,0,0,0-.541-.414c-.206-.145-.587-.375-.718-.447.3-.325,1.351-1.7,2.524-3.38Z" transform="translate(-85.91 -252.541)" fill="#3d5065" stroke="#3d5065" stroke-width="0.5"/>
      <path id="Path_394" data-name="Path 394" d="M153.728,336.834a26.509,26.509,0,0,0,1.006-3.4c.12.057.388.147.571.208a7.528,7.528,0,0,0,.814.228c-.175.417-.669,1.706-1.222,3.359l-.7,2.067a31.252,31.252,0,0,0-1.028,3.425c-.106-.051-.368-.154-.58-.225-.281-.094-.669-.194-.8-.223.2-.393.733-1.854,1.243-3.369Z" transform="translate(-125.291 -275.223)" fill="#3d5065" stroke="#3d5065" stroke-width="0.5"/>
      <path id="Path_395" data-name="Path 395" d="M195.014,347.439c.016.565.023.8.026.915a9.038,9.038,0,0,1-3.256.63,5.824,5.824,0,0,1-4.38-1.491,4.636,4.636,0,0,1-1.365-3.247,4.381,4.381,0,0,1,1.92-3.907,6.858,6.858,0,0,1,3.732-1.035,12.659,12.659,0,0,1,3.226.417,6.2,6.2,0,0,0-.126,1.327,4.863,4.863,0,0,0-3.476-.934,4.253,4.253,0,0,0-2.743.964,3.694,3.694,0,0,0-1.163,2.868c.073,2.631,1.734,4.284,4.649,4.2a3.85,3.85,0,0,0,1.693-.339c.03-.03.042-.1.035-.349l-.042-1.5a9.792,9.792,0,0,0-.209-1.814c.174.01.459,0,.681,0a4.368,4.368,0,0,0,.768-.066c-.021.307-.038,1.252-.014,2.138Z" transform="translate(-153.559 -280.069)" fill="#3d5065" stroke="#3d5065" stroke-width="0.5"/>
      <path id="Path_396" data-name="Path 396" d="M262.239,321.368l.461.791a9.053,9.053,0,0,1-2.556,2.111,5.837,5.837,0,0,1-4.562.789,4.661,4.661,0,0,1-2.75-2.2,4.413,4.413,0,0,1-.185-4.349,6.819,6.819,0,0,1,2.783-2.7,12.626,12.626,0,0,1,3.032-1.177,6.251,6.251,0,0,0,.524,1.222,4.847,4.847,0,0,0-3.5.845,4.273,4.273,0,0,0-1.947,2.158,3.7,3.7,0,0,0,.349,3.076c1.323,2.269,3.573,2.931,6.093,1.463a3.776,3.776,0,0,0,1.325-1.107c.012-.04-.012-.112-.136-.325l-.754-1.294a10.008,10.008,0,0,0-1.047-1.5c.161-.077.4-.218.6-.33a4.171,4.171,0,0,0,.642-.424c.129.278.566,1.117,1.011,1.884Z" transform="translate(-208.141 -259.714)" fill="#3d5065" stroke="#3d5065" stroke-width="0.5"/>
      <path id="Path_397" data-name="Path 397" d="M226.537,96.7c4.5-1.124,8.94-2.4,12.894-4.914,9.659-6.143,15.3-15,16.358-26.3,1.37-14.619-4.64-25.92-16.885-33.947a8.226,8.226,0,0,1-.775-.726c1.522-.264,2.184.873,3.125,1.222a22.433,22.433,0,0,1,2.774,1.5,45.379,45.379,0,0,1,4.057,3.7c9.412,10.812,11.781,23.091,7.179,36.605-4.34,12.742-13.348,20.44-26.4,23.5a18.6,18.6,0,0,1-1.875.243H223.55C224.512,96.823,225.689,97.624,226.537,96.7Z" transform="translate(-184.524 -25.397)" fill="#3d5065" stroke="#3d5065" stroke-width="0.5"/>
      <path id="Path_398" data-name="Path 398" d="M42.015,143.658c-.848.929-2.025.127-2.987.861h3.443c-5.445,1.29-10.773.489-16.086-.854-7.585-1.92-13.329-6.515-18.221-12.378-3.654-4.378-6.634-9.1-7.545-14.876C-1.018,106,.44,96.274,6.932,87.66a.941.941,0,0,1,.379.829C4.146,94.215,1.686,100.165,1.237,106.8c-.723,10.667,3.214,19.336,10.885,26.613a36.748,36.748,0,0,0,26.332,10.391C39.641,143.808,40.828,143.71,42.015,143.658Z" transform="translate(-0.002 -72.359)" fill="#3d5065" stroke="#3d5065" stroke-width="0.5"/>
      <path id="Path_399" data-name="Path 399" d="M40.079,16.146a.933.933,0,0,0-.379-.829C48.708,2.748,60.962-1.791,76.023.653c1.367.216,2.7.618,4.057.932.873.915,2.42.7,3.142,1.87l-.443.349A38.175,38.175,0,0,0,67.718,1.236,34.495,34.495,0,0,0,43.911,11.955C42.582,13.31,41.6,14.971,40.079,16.146Z" transform="translate(-32.77 -0.017)" fill="#3d5065" stroke="#3d5065" stroke-width="0.5"/>
      <path id="Path_400" data-name="Path 400" d="M286.9,19.73l.677.079a5.81,5.81,0,0,0,2.154.787c.161.6.571,1.442-.688.854-.883-.412-1.727-.915-2.587-1.377Z" transform="translate(-236.451 -16.288)" fill="#3d5065" stroke="#3d5065" stroke-width="0.5"/>
    </g>
  </g>
</svg>
