<svg width="144" height="24" viewBox="0 0 144 24" fill="none" xmlns="http://www.w3.org/2000/svg">
<g id="Group">
<path id="Vector" d="M4.63828 15.3789C4.63828 16.1351 4.89036 16.3872 5.6466 16.3872H6.17597C6.62972 16.3872 6.90701 16.6393 6.90701 17.1686C6.90701 17.698 6.62972 17.9501 6.17597 17.9501H0.731034C0.277289 17.9501 0 17.698 0 17.1686C0 16.6393 0.277289 16.3872 0.731034 16.3872H1.00832C1.76456 16.3872 2.01664 16.1351 2.01664 15.3789V2.77483C2.01664 2.11942 1.76456 1.86734 1.00832 1.86734H0.731034C0.277289 1.86734 0 1.61526 0 1.08589C0 0.556524 0.277289 0.304443 0.731034 0.304443H7.48679C11.0411 0.304443 13.4611 2.42192 13.4611 5.54772C13.4611 8.67352 11.0411 10.9674 7.48679 10.9674H6.32722C5.87348 10.9674 5.59619 10.7406 5.59619 10.186C5.59619 9.65663 5.87348 9.40455 6.32722 9.40455H7.00784C9.78072 9.40455 10.7386 7.43832 10.7386 5.54772C10.7386 3.65711 9.78072 1.86734 6.75576 1.86734H5.6466C4.89036 1.86734 4.63828 2.11942 4.63828 2.87566V15.3789Z" fill="white"/>
<path id="Vector_2" d="M25.334 15.8829C24.4265 17.3198 22.9897 18.2525 21.1243 18.2525C18.6035 18.2525 16.5616 16.8408 16.5616 13.8411V7.76592C16.5616 7.16093 16.1835 6.90885 15.6793 6.90885H15.6541C15.2004 6.90885 14.9231 6.65677 14.9231 6.1274C14.9231 5.59803 15.2004 5.34595 15.6541 5.34595H18.4774C18.8303 5.34595 19.032 5.54761 19.032 5.90052V13.589C19.032 15.3535 19.6622 16.5887 21.4772 16.5887C23.4938 16.5887 25.1576 14.5973 25.1576 11.6984V7.76592C25.1576 7.16093 24.7794 6.90885 24.2753 6.90885H24.2501C23.7963 6.90885 23.519 6.65677 23.519 6.1274C23.519 5.59803 23.7963 5.34595 24.2501 5.34595H27.0734C27.4263 5.34595 27.628 5.54761 27.628 5.90052V15.4292C27.628 15.9837 27.8296 16.3871 28.2834 16.4123H28.5354C28.9892 16.3871 29.2665 16.6392 29.2665 17.1685C29.2665 17.6979 28.9892 17.95 28.5354 17.95H26.0651C25.7373 17.95 25.5105 17.7483 25.4853 17.4206L25.334 15.8829Z" fill="white"/>
<path id="Vector_3" d="M38.9213 8.09363C38.2154 7.46343 37.8625 7.08531 36.9802 7.08531C35.4173 7.08531 34.6107 8.27009 34.6107 10.4632V15.53C34.6107 16.0342 34.9636 16.3871 35.4678 16.3871C35.8711 16.3871 36.098 16.6392 36.098 17.1685C36.098 17.6979 35.8207 17.95 35.3669 17.95H31.3588C30.9051 17.95 30.6278 17.6979 30.6278 17.1685C30.6278 16.6392 30.8547 16.3871 31.2832 16.3871C31.7874 16.3871 32.1403 16.0342 32.1403 15.53V7.76592C32.1403 7.26176 31.7874 6.90885 31.2832 6.90885C30.8799 6.90885 30.6278 6.65677 30.6278 6.1274C30.6278 5.59803 30.9051 5.34595 31.3588 5.34595H33.8292C34.1569 5.34595 34.3838 5.54762 34.409 5.87532L34.4846 6.70719C35.1653 5.67366 36.224 5.14429 37.56 5.14429C38.7952 5.14429 39.7279 5.57282 40.3329 6.22823C41.2152 7.16093 39.8792 8.9507 38.9213 8.09363Z" fill="white"/>
<path id="Vector_4" d="M55.5082 17.1434C55.5082 17.698 55.2309 17.9501 54.7771 17.9501H52.2059C51.853 17.9501 51.6513 17.7736 51.6261 17.4207L51.5253 16.0595C50.3405 17.698 48.7524 18.2526 47.0383 18.2526C44.2906 18.2526 41.316 16.2863 41.316 11.7237C41.316 7.58956 44.2906 5.14437 47.1391 5.14437C49.2314 5.14437 50.5926 6.10228 51.3993 7.06019V2.72246C51.3993 2.11747 51.0211 1.86539 50.517 1.86539H50.4918C50.038 1.86539 49.7607 1.61331 49.7607 1.08394C49.7607 0.554571 50.038 0.30249 50.4918 0.30249H53.3151C53.668 0.30249 53.8696 0.504155 53.8696 0.857067V15.3265C53.8696 16.1079 54.3738 16.3852 54.7771 16.3852C55.2813 16.3872 55.5082 16.614 55.5082 17.1434ZM51.4497 11.7237C51.4497 8.90037 49.8868 6.80811 47.6181 6.80811C45.0216 6.80811 43.8873 8.90037 43.8873 11.7237C43.8873 14.4966 45.0216 16.5888 47.6181 16.5888C49.8868 16.5888 51.4497 14.4966 51.4497 11.7237Z" fill="white"/>
<path id="Vector_5" d="M69.549 5.34595C70.0027 5.34595 70.28 5.59803 70.28 6.1274C70.28 6.65677 70.0532 6.90885 69.6498 6.90885C69.1709 6.90885 68.8936 7.16093 68.7171 7.56426L63.1966 19.9162C62.3899 21.7312 60.8774 23.3949 58.6591 23.3949C57.4239 23.3949 56.1131 22.9664 55.3821 22.1849C54.525 21.2018 55.9367 19.5381 56.945 20.496C57.4743 20.9749 58.0037 21.6556 58.9364 21.6556C60.5749 21.6556 61.3564 20.1935 62.5412 17.5971L57.6256 7.41301C57.4996 7.16093 57.2475 6.90885 56.8693 6.90885C56.4408 6.90885 56.1887 6.65677 56.1887 6.1274C56.1887 5.59803 56.466 5.34595 56.9198 5.34595H60.9278C61.3816 5.34595 61.6589 5.59803 61.6589 6.1274C61.6589 6.65677 61.4572 6.90885 61.0539 6.90885C60.6506 6.90885 60.4741 7.11051 60.4741 7.41301C60.4741 7.56426 60.5245 7.76592 60.6253 7.96758L63.8268 14.6477L66.7509 7.96758C66.8517 7.74071 66.9274 7.51384 66.9274 7.36259C66.9274 7.0853 66.7509 6.90885 66.3224 6.90885C65.8686 6.90885 65.6165 6.65677 65.6165 6.1274C65.6165 5.59803 65.8938 5.34595 66.3476 5.34595H69.549Z" fill="white"/>
<path id="Vector_6" d="M90.7742 16.8661C90.3709 17.6224 89.3373 18.2526 88.1778 18.2526C86.8165 18.2526 85.4805 17.4963 85.4553 15.4797C84.3461 17.4459 82.3799 18.2526 80.3381 18.2526C77.2627 18.2526 74.8679 16.362 74.8679 13.3622C74.8679 11.0431 76.0779 9.02643 78.6239 8.19457C76.7837 7.76603 75.6242 6.27876 75.6242 4.56461C75.6242 1.74131 78.1702 0.00195312 80.8422 0.00195312C82.5312 0.00195312 83.968 0.43049 84.6991 1.21194C85.5057 2.14464 84.1697 3.73274 83.1614 2.85046C82.4555 2.22026 81.8506 1.61527 80.7414 1.61527C79.0272 1.61527 78.0946 2.77484 78.0946 4.38815C78.0946 6.25355 79.4054 7.18625 81.5228 7.18625H81.9766C82.4303 7.18625 82.6824 7.43833 82.6824 7.9929C82.6824 8.54748 82.4303 8.79956 81.9766 8.79956C79.4306 8.79956 77.4644 10.665 77.4644 13.0597C77.4644 15.2528 78.6995 16.6393 80.7918 16.6393C83.1614 16.6393 85.3545 14.5722 85.3545 9.80788V8.77435H84.3461C83.8924 8.77435 83.6403 8.49707 83.6403 7.9677C83.6403 7.46354 83.8924 7.21145 84.3461 7.21145H85.4805L86.1107 4.81669C86.1863 4.56461 86.3376 4.41336 86.6149 4.41336H87.3711C87.6484 4.41336 87.8249 4.58982 87.8249 4.86711V7.21145H89.6146C90.0684 7.21145 90.3205 7.43833 90.3205 7.9677C90.3205 8.52227 90.0684 8.77435 89.6146 8.77435H87.8249V15.7066C87.8249 16.3116 88.1021 16.6645 88.6063 16.6645C89.0348 16.6645 89.3373 16.4124 89.665 16.0091C89.9423 15.6562 90.1944 15.5301 90.5473 15.7066C91.0515 15.9586 91.0011 16.4124 90.7742 16.8661Z" fill="white"/>
<path id="Vector_7" d="M101.234 15.3788C101.234 16.1351 101.486 16.3872 102.242 16.3872H102.519C102.973 16.3872 103.25 16.6392 103.25 17.1686C103.25 17.698 102.973 17.9501 102.519 17.9501H97.3264C96.8726 17.9501 96.5953 17.698 96.5953 17.1686C96.5953 16.6392 96.8726 16.3872 97.3264 16.3872H97.6037C98.3599 16.3872 98.612 16.1351 98.612 15.3788V2.87371C98.612 2.11747 98.3599 1.86539 97.6037 1.86539H97.3264C96.8726 1.86539 96.5953 1.61331 96.5953 1.08394C96.5953 0.554571 96.8726 0.30249 97.3264 0.30249H108.267C108.62 0.30249 108.796 0.478947 108.821 0.83186L109.023 4.00807C109.048 4.31057 108.821 4.48703 108.443 4.48703C108.065 4.48703 107.838 4.28536 107.687 3.85683C107.158 2.47038 106.2 1.86539 105.116 1.86539H102.242C101.486 1.86539 101.234 2.11747 101.234 2.87371V15.3788ZM102.897 10.1608C102.444 10.1608 102.192 9.9087 102.192 9.37933C102.192 8.84996 102.444 8.59788 102.897 8.59788H105.04C105.544 8.59788 105.771 8.32059 105.771 7.91726C105.771 7.46352 106.023 7.18623 106.527 7.18623C107.057 7.18623 107.309 7.46352 107.309 7.91726V10.8414C107.309 11.2951 107.057 11.5724 106.527 11.5724C106.023 11.5724 105.771 11.2951 105.771 10.8414C105.771 10.3624 105.544 10.1608 105.04 10.1608H102.897Z" fill="white"/>
<path id="Vector_8" d="M113.812 5.34605C114.165 5.34605 114.367 5.54771 114.367 5.90062V15.5301C114.367 16.0343 114.72 16.3872 115.224 16.3872C115.627 16.3872 115.854 16.6393 115.854 17.1686C115.854 17.698 115.577 17.9501 115.123 17.9501H111.115C110.661 17.9501 110.384 17.698 110.384 17.1686C110.384 16.6393 110.611 16.3872 111.04 16.3872C111.544 16.3872 111.897 16.0343 111.897 15.5301V7.76602C111.897 7.26186 111.544 6.90894 111.04 6.90894C110.636 6.90894 110.384 6.65686 110.384 6.12749C110.384 5.59813 110.661 5.34605 111.115 5.34605H113.812ZM111.519 1.61332C111.519 0.731033 112.25 0 113.157 0C114.039 0 114.77 0.731033 114.77 1.61332C114.77 2.5208 114.039 3.25184 113.157 3.25184C112.25 3.25184 111.519 2.5208 111.519 1.61332Z" fill="white"/>
<path id="Vector_9" d="M129.139 6.73239H127.526C128.307 7.56426 128.736 8.64821 128.736 9.85819C128.736 12.4546 126.719 14.5721 123.417 14.5721C122.307 14.5721 121.375 14.3704 120.619 14.0175C120.14 14.2192 119.862 14.5469 119.862 15.0258C119.862 15.6813 120.366 15.8829 121.501 15.8829H124.349C127.399 15.8829 129.643 17.1181 129.643 19.891C129.643 22.6135 127.122 23.9999 123.719 23.9999C120.039 23.9999 117.694 22.4622 117.694 20.4456C117.694 19.5633 118.047 18.7818 118.955 18.7818C119.761 18.7818 119.913 19.3112 120.014 20.0675C120.19 21.5799 121.198 22.4118 123.719 22.4118C125.736 22.4118 127.173 21.8068 127.173 20.2691C127.173 18.807 126.089 18.2525 123.971 18.2525H120.896C118.652 18.2525 117.669 17.3198 117.669 15.7821C117.669 14.799 118.199 13.7402 119.358 13.1352C118.526 12.2782 118.098 11.1186 118.098 9.85819C118.098 7.23656 119.862 5.14429 123.417 5.14429H129.139C129.643 5.14429 129.895 5.42158 129.895 5.92574C129.895 6.4299 129.643 6.73239 129.139 6.73239ZM123.417 6.73239C122.106 6.73239 120.518 7.43822 120.518 9.85819C120.518 12.2782 122.106 12.984 123.417 12.984C124.702 12.984 126.316 12.2782 126.316 9.85819C126.316 7.43822 124.702 6.73239 123.417 6.73239Z" fill="white"/>
<path id="Vector_10" d="M142.827 6.73239H141.214C141.995 7.56426 142.424 8.64821 142.424 9.85819C142.424 12.4546 140.407 14.5721 137.105 14.5721C135.995 14.5721 135.063 14.3704 134.307 14.0175C133.828 14.2192 133.55 14.5469 133.55 15.0258C133.55 15.6813 134.054 15.8829 135.189 15.8829H138.037C141.087 15.8829 143.331 17.1181 143.331 19.891C143.331 22.6135 140.81 23.9999 137.407 23.9999C133.727 23.9999 131.382 22.4622 131.382 20.4456C131.382 19.5633 131.735 18.7818 132.643 18.7818C133.449 18.7818 133.601 19.3112 133.702 20.0675C133.878 21.5799 134.886 22.4118 137.407 22.4118C139.424 22.4118 140.861 21.8068 140.861 20.2691C140.861 18.807 139.777 18.2525 137.659 18.2525H134.584C132.34 18.2525 131.357 17.3198 131.357 15.7821C131.357 14.799 131.887 13.7402 133.046 13.1352C132.214 12.2782 131.786 11.1186 131.786 9.85819C131.786 7.23656 133.55 5.14429 137.105 5.14429H142.827C143.331 5.14429 143.583 5.42158 143.583 5.92574C143.583 6.4299 143.331 6.73239 142.827 6.73239ZM137.105 6.73239C135.794 6.73239 134.206 7.43822 134.206 9.85819C134.206 12.2782 135.794 12.984 137.105 12.984C138.39 12.984 140.004 12.2782 140.004 9.85819C140.004 7.43822 138.39 6.73239 137.105 6.73239Z" fill="white"/>
</g>
</svg>
