<svg width="60" height="24" viewBox="0 0 60 24" fill="none" xmlns="http://www.w3.org/2000/svg">
<g id="Group">
<path id="Vector" d="M6.09945 20.2209C6.09945 21.2154 6.43094 21.5469 7.42542 21.5469H8.12155C8.71823 21.5469 9.08287 21.8784 9.08287 22.5745C9.08287 23.2706 8.71823 23.6021 8.12155 23.6021H0.961326C0.364641 23.6021 0 23.2706 0 22.5745C0 21.8784 0.364641 21.5469 0.961326 21.5469H1.32597C2.32044 21.5469 2.65193 21.2154 2.65193 20.2209V3.64632C2.65193 2.78445 2.32044 2.45295 1.32597 2.45295H0.961326C0.364641 2.45295 0 2.12146 0 1.42533C0 0.729197 0.364641 0.397705 0.961326 0.397705H9.8453C14.5193 0.397705 17.7017 3.18224 17.7017 7.29273C17.7017 11.4032 14.5193 14.4198 9.8453 14.4198H8.32044C7.72376 14.4198 7.35912 14.1215 7.35912 13.3922C7.35912 12.696 7.72376 12.3646 8.32044 12.3646H9.21547C12.8619 12.3646 14.1215 9.77892 14.1215 7.29273C14.1215 4.80655 12.8619 2.45295 8.88398 2.45295H7.42542C6.43094 2.45295 6.09945 2.78445 6.09945 3.77892V20.2209Z" fill="#304F66"/>
<path id="Vector_2" d="M40.5397 22.1768C40.0093 23.1713 38.6502 24 37.1253 24C35.3353 24 33.5784 23.0055 33.5452 20.3536C32.0866 22.9392 29.501 24 26.8159 24C22.7717 24 19.6226 21.5138 19.6226 17.5691C19.6226 14.5193 21.2137 11.8674 24.5618 10.7735C22.1419 10.2099 20.617 8.25414 20.617 6C20.617 2.28729 23.9651 0 27.4789 0C29.6999 0 31.5894 0.563536 32.5507 1.59116C33.6115 2.81768 31.8546 4.90608 30.5286 3.74586C29.6005 2.91713 28.8049 2.12155 27.3463 2.12155C25.0922 2.12155 23.8657 3.64641 23.8657 5.76796C23.8657 8.221 25.5894 9.44751 28.3739 9.44751H28.9706C29.5673 9.44751 29.8988 9.77901 29.8988 10.5083C29.8988 11.2376 29.5673 11.5691 28.9706 11.5691C25.6226 11.5691 23.0369 14.0221 23.0369 17.1713C23.0369 20.0553 24.6612 21.8785 27.4126 21.8785C30.5286 21.8785 33.4126 19.1602 33.4126 12.895V11.5359H32.0866C31.49 11.5359 31.1585 11.1713 31.1585 10.4751C31.1585 9.81216 31.49 9.48066 32.0866 9.48066H33.5784L34.4071 6.33149C34.5065 6 34.7054 5.80111 35.0701 5.80111H36.0646C36.4292 5.80111 36.6612 6.03315 36.6612 6.39779V9.48066H39.0148C39.6115 9.48066 39.943 9.77901 39.943 10.4751C39.943 11.2044 39.6115 11.5359 39.0148 11.5359H36.6612V20.6519C36.6612 21.4475 37.0259 21.9116 37.6889 21.9116C38.2524 21.9116 38.6502 21.5801 39.0811 21.0497C39.4458 20.5856 39.7773 20.4199 40.2413 20.6519C40.9043 20.9834 40.838 21.5801 40.5397 22.1768Z" fill="#304F66"/>
<path id="Vector_3" d="M48.993 20.2209C48.993 21.2154 49.3245 21.5469 50.319 21.5469H50.6836C51.2803 21.5469 51.6449 21.8784 51.6449 22.5745C51.6449 23.2706 51.2803 23.6021 50.6836 23.6021H43.8549C43.2582 23.6021 42.8936 23.2706 42.8936 22.5745C42.8936 21.8784 43.2582 21.5469 43.8549 21.5469H44.2195C45.214 21.5469 45.5455 21.2154 45.5455 20.2209V3.77892C45.5455 2.78445 45.214 2.45295 44.2195 2.45295H43.8549C43.2582 2.45295 42.8936 2.12146 42.8936 1.42533C42.8936 0.729197 43.2582 0.397705 43.8549 0.397705H58.2416C58.7057 0.397705 58.9378 0.629749 58.9709 1.09384L59.2361 5.27063C59.2692 5.66842 58.9709 5.90047 58.4737 5.90047C57.9764 5.90047 57.6781 5.63527 57.4792 5.07174C56.7831 3.24853 55.5234 2.45295 54.098 2.45295H50.319C49.3245 2.45295 48.993 2.78445 48.993 3.77892V20.2209ZM51.1808 13.359C50.5842 13.359 50.2527 13.0275 50.2527 12.3314C50.2527 11.6353 50.5842 11.3038 51.1808 11.3038H53.9985C54.6615 11.3038 54.9599 10.9391 54.9599 10.4088C54.9599 9.81207 55.2913 9.44743 55.9543 9.44743C56.6505 9.44743 56.982 9.81207 56.982 10.4088V14.2541C56.982 14.8507 56.6505 15.2154 55.9543 15.2154C55.2913 15.2154 54.9599 14.8507 54.9599 14.2541C54.9599 13.6242 54.6615 13.359 53.9985 13.359H51.1808Z" fill="#304F66"/>
</g>
</svg>
