<svg width="192" height="32" viewBox="0 0 192 32" fill="none" xmlns="http://www.w3.org/2000/svg">
<g id="Group">
<path id="Vector" d="M6.18437 20.5052C6.18437 21.5135 6.52048 21.8496 7.5288 21.8496H8.23462C8.83962 21.8496 9.20933 22.1857 9.20933 22.8916C9.20933 23.5974 8.83962 23.9335 8.23462 23.9335H0.974711C0.369718 23.9335 0 23.5974 0 22.8916C0 22.1857 0.369718 21.8496 0.974711 21.8496H1.34443C2.35275 21.8496 2.68886 21.5135 2.68886 20.5052V3.69986C2.68886 2.82598 2.35275 2.48987 1.34443 2.48987H0.974711C0.369718 2.48987 0 2.15376 0 1.44794C0 0.742113 0.369718 0.406006 0.974711 0.406006H9.98238C14.7215 0.406006 17.9481 3.22931 17.9481 7.39703C17.9481 11.5648 14.7215 14.6233 9.98238 14.6233H8.43629C7.8313 14.6233 7.46158 14.3208 7.46158 13.5814C7.46158 12.8756 7.8313 12.5395 8.43629 12.5395H9.34378C13.041 12.5395 14.3182 9.91784 14.3182 7.39703C14.3182 4.87623 13.041 2.48987 9.00767 2.48987H7.5288C6.52048 2.48987 6.18437 2.82598 6.18437 3.8343V20.5052Z" fill="#314F66"/>
<path id="Vector_2" d="M33.7791 21.1772C32.5691 23.093 30.6533 24.3366 28.1661 24.3366C24.805 24.3366 22.0825 22.4544 22.0825 18.4547V10.3546C22.0825 9.5479 21.5784 9.21179 20.9062 9.21179H20.8725C20.2675 9.21179 19.8978 8.87569 19.8978 8.16986C19.8978 7.46404 20.2675 7.12793 20.8725 7.12793H24.6369C25.1075 7.12793 25.3764 7.39682 25.3764 7.86737V18.1186C25.3764 20.4714 26.2166 22.1183 28.6366 22.1183C31.3255 22.1183 33.5438 19.4631 33.5438 15.5978V10.3546C33.5438 9.5479 33.0396 9.21179 32.3674 9.21179H32.3338C31.7288 9.21179 31.3591 8.87569 31.3591 8.16986C31.3591 7.46404 31.7288 7.12793 32.3338 7.12793H36.0982C36.5687 7.12793 36.8376 7.39682 36.8376 7.86737V20.5722C36.8376 21.3117 37.1065 21.8494 37.7115 21.883H38.0476C38.6526 21.8494 39.0223 22.1855 39.0223 22.8914C39.0223 23.5972 38.6526 23.9333 38.0476 23.9333H34.7538C34.3168 23.9333 34.0143 23.6644 33.9807 23.2275L33.7791 21.1772Z" fill="#314F66"/>
<path id="Vector_3" d="M51.8952 10.7916C50.9541 9.95132 50.4836 9.44716 49.3072 9.44716C47.2233 9.44716 46.1478 11.0269 46.1478 13.951V20.7067C46.1478 21.379 46.6183 21.8495 47.2905 21.8495C47.8283 21.8495 48.1308 22.1856 48.1308 22.8914C48.1308 23.5973 47.7611 23.9334 47.1561 23.9334H41.812C41.207 23.9334 40.8373 23.5973 40.8373 22.8914C40.8373 22.1856 41.1398 21.8495 41.7112 21.8495C42.3834 21.8495 42.8539 21.379 42.8539 20.7067V10.3546C42.8539 9.68243 42.3834 9.21188 41.7112 9.21188C41.1734 9.21188 40.8373 8.87577 40.8373 8.16995C40.8373 7.46412 41.207 7.12802 41.812 7.12802H45.1058C45.5428 7.12802 45.8453 7.3969 45.8789 7.83384L45.9797 8.943C46.8872 7.56496 48.2989 6.85913 50.0802 6.85913C51.7272 6.85913 52.9707 7.43051 53.7774 8.30439C54.9538 9.54799 53.1724 11.9343 51.8952 10.7916Z" fill="#314F66"/>
<path id="Vector_4" d="M74.0107 22.8579C74.0107 23.5973 73.641 23.9334 73.036 23.9334H69.6077C69.1372 23.9334 68.8683 23.6981 68.8347 23.2276L68.7002 21.4126C67.1205 23.5973 65.0031 24.3367 62.7175 24.3367C59.054 24.3367 55.0879 21.7151 55.0879 15.6316C55.0879 10.1194 59.054 6.85916 62.852 6.85916C65.6417 6.85916 67.4566 8.13637 68.5322 9.41358V3.62995C68.5322 2.82329 68.028 2.48718 67.3558 2.48718H67.3222C66.7172 2.48718 66.3475 2.15108 66.3475 1.44525C66.3475 0.739428 66.7172 0.40332 67.3222 0.40332H71.0866C71.5571 0.40332 71.826 0.672206 71.826 1.14276V20.4353C71.826 21.4772 72.4982 21.847 73.036 21.847C73.7082 21.8495 74.0107 22.152 74.0107 22.8579ZM68.5994 15.6316C68.5994 11.8672 66.5155 9.07747 63.4906 9.07747C60.0287 9.07747 58.5162 11.8672 58.5162 15.6316C58.5162 19.3287 60.0287 22.1184 63.4906 22.1184C66.5155 22.1184 68.5994 19.3287 68.5994 15.6316Z" fill="#314F66"/>
<path id="Vector_5" d="M92.7319 7.12793C93.3369 7.12793 93.7066 7.46404 93.7066 8.16986C93.7066 8.87569 93.4041 9.21179 92.8663 9.21179C92.2277 9.21179 91.858 9.5479 91.6227 10.0857L84.262 26.5549C83.1864 28.9749 81.1698 31.1932 78.212 31.1932C76.5651 31.1932 74.8174 30.6218 73.8426 29.5799C72.6999 28.2691 74.5821 26.0508 75.9265 27.328C76.6323 27.9666 77.3382 28.8741 78.5818 28.8741C80.7664 28.8741 81.8084 26.9246 83.3881 23.4627L76.834 9.88401C76.6659 9.5479 76.3298 9.21179 75.8257 9.21179C75.2543 9.21179 74.9182 8.87569 74.9182 8.16986C74.9182 7.46404 75.2879 7.12793 75.8929 7.12793H81.237C81.842 7.12793 82.2117 7.46404 82.2117 8.16986C82.2117 8.87569 81.9428 9.21179 81.4051 9.21179C80.8673 9.21179 80.632 9.48068 80.632 9.88401C80.632 10.0857 80.6992 10.3546 80.8337 10.6234L85.1022 19.5303L89.0011 10.6234C89.1355 10.3209 89.2364 10.0185 89.2364 9.81679C89.2364 9.44707 89.0011 9.21179 88.4297 9.21179C87.8247 9.21179 87.4886 8.87569 87.4886 8.16986C87.4886 7.46404 87.8583 7.12793 88.4633 7.12793H92.7319Z" fill="#314F66"/>
<path id="Vector_6" d="M121.032 22.4883C120.494 23.4966 119.116 24.3368 117.57 24.3368C115.755 24.3368 113.974 23.3285 113.94 20.6397C112.461 23.2613 109.84 24.3368 107.117 24.3368C103.017 24.3368 99.8239 21.816 99.8239 17.8164C99.8239 14.7242 101.437 12.0353 104.832 10.9262C102.378 10.3548 100.832 8.37175 100.832 6.08622C100.832 2.32182 104.227 0.00268555 107.79 0.00268555C110.042 0.00268555 111.957 0.574068 112.932 1.616C114.008 2.8596 112.226 4.97707 110.882 3.8007C109.941 2.96043 109.134 2.15377 107.655 2.15377C105.37 2.15377 104.126 3.69986 104.126 5.85095C104.126 8.33814 105.874 9.58174 108.697 9.58174H109.302C109.907 9.58174 110.243 9.91785 110.243 10.6573C110.243 11.3967 109.907 11.7328 109.302 11.7328C105.907 11.7328 103.286 14.22 103.286 17.413C103.286 20.3372 104.933 22.1858 107.722 22.1858C110.882 22.1858 113.806 19.4297 113.806 13.0773V11.6992H112.461C111.856 11.6992 111.52 11.3295 111.52 10.6237C111.52 9.95146 111.856 9.61535 112.461 9.61535H113.974L114.814 6.42233C114.915 6.08622 115.117 5.88456 115.486 5.88456H116.495C116.864 5.88456 117.1 6.11983 117.1 6.48955V9.61535H119.486C120.091 9.61535 120.427 9.91785 120.427 10.6237C120.427 11.3631 120.091 11.6992 119.486 11.6992H117.1V20.9422C117.1 21.7488 117.469 22.2194 118.142 22.2194C118.713 22.2194 119.116 21.8833 119.553 21.3455C119.923 20.8749 120.259 20.7069 120.73 20.9422C121.402 21.2783 121.335 21.8833 121.032 22.4883Z" fill="#314F66"/>
<path id="Vector_7" d="M134.978 20.5051C134.978 21.5134 135.314 21.8495 136.322 21.8495H136.692C137.297 21.8495 137.667 22.1856 137.667 22.8915C137.667 23.5973 137.297 23.9334 136.692 23.9334H129.768C129.163 23.9334 128.794 23.5973 128.794 22.8915C128.794 22.1856 129.163 21.8495 129.768 21.8495H130.138C131.146 21.8495 131.482 21.5134 131.482 20.5051V3.83161C131.482 2.82329 131.146 2.48719 130.138 2.48719H129.768C129.163 2.48719 128.794 2.15108 128.794 1.44525C128.794 0.739428 129.163 0.40332 129.768 0.40332H144.355C144.826 0.40332 145.061 0.638596 145.095 1.10915L145.364 5.3441C145.397 5.74742 145.095 5.9827 144.591 5.9827C144.086 5.9827 143.784 5.71381 143.582 5.14243C142.876 3.29384 141.599 2.48719 140.154 2.48719H136.322C135.314 2.48719 134.978 2.82329 134.978 3.83161V20.5051ZM137.196 13.5477C136.591 13.5477 136.255 13.2116 136.255 12.5058C136.255 11.7999 136.591 11.4638 137.196 11.4638H140.053C140.725 11.4638 141.028 11.0941 141.028 10.5563C141.028 9.95135 141.364 9.58163 142.036 9.58163C142.742 9.58163 143.078 9.95135 143.078 10.5563V14.4552C143.078 15.0602 142.742 15.4299 142.036 15.4299C141.364 15.4299 141.028 15.0602 141.028 14.4552C141.028 13.8166 140.725 13.5477 140.053 13.5477H137.196Z" fill="#314F66"/>
<path id="Vector_8" d="M151.75 7.12806C152.22 7.12806 152.489 7.39694 152.489 7.86749V20.7068C152.489 21.379 152.96 21.8495 153.632 21.8495C154.17 21.8495 154.472 22.1857 154.472 22.8915C154.472 23.5973 154.103 23.9334 153.498 23.9334H148.153C147.548 23.9334 147.179 23.5973 147.179 22.8915C147.179 22.1857 147.481 21.8495 148.053 21.8495C148.725 21.8495 149.195 21.379 149.195 20.7068V10.3547C149.195 9.68247 148.725 9.21192 148.053 9.21192C147.515 9.21192 147.179 8.87581 147.179 8.16999C147.179 7.46416 147.548 7.12806 148.153 7.12806H151.75ZM148.691 2.15109C148.691 0.974711 149.666 0 150.876 0C152.052 0 153.027 0.974711 153.027 2.15109C153.027 3.36107 152.052 4.33578 150.876 4.33578C149.666 4.33578 148.691 3.36107 148.691 2.15109Z" fill="#314F66"/>
<path id="Vector_9" d="M172.185 8.97661H170.034C171.076 10.0858 171.647 11.531 171.647 13.1443C171.647 16.6062 168.958 19.4295 164.555 19.4295C163.077 19.4295 161.833 19.1607 160.825 18.6901C160.186 18.959 159.816 19.3959 159.816 20.0345C159.816 20.9084 160.489 21.1773 162.001 21.1773H165.799C169.866 21.1773 172.857 22.8242 172.857 26.5214C172.857 30.1514 169.496 31.9999 164.959 31.9999C160.052 31.9999 156.926 29.9497 156.926 27.2608C156.926 26.0845 157.396 25.0425 158.606 25.0425C159.682 25.0425 159.884 25.7484 160.018 26.7567C160.253 28.7733 161.598 29.8825 164.959 29.8825C167.648 29.8825 169.563 29.0758 169.563 27.0256C169.563 25.0761 168.118 24.3367 165.295 24.3367H161.194C158.203 24.3367 156.892 23.0931 156.892 21.0429C156.892 19.732 157.598 18.3204 159.144 17.5137C158.035 16.371 157.464 14.8249 157.464 13.1443C157.464 9.64882 159.816 6.85913 164.555 6.85913H172.185C172.857 6.85913 173.193 7.22885 173.193 7.90106C173.193 8.57328 172.857 8.97661 172.185 8.97661ZM164.555 8.97661C162.808 8.97661 160.69 9.91771 160.69 13.1443C160.69 16.371 162.808 17.3121 164.555 17.3121C166.27 17.3121 168.421 16.371 168.421 13.1443C168.421 9.91771 166.27 8.97661 164.555 8.97661Z" fill="#314F66"/>
<path id="Vector_10" d="M190.436 8.97661H188.285C189.327 10.0858 189.898 11.531 189.898 13.1443C189.898 16.6062 187.209 19.4295 182.806 19.4295C181.327 19.4295 180.084 19.1607 179.075 18.6901C178.437 18.959 178.067 19.3959 178.067 20.0345C178.067 20.9084 178.739 21.1773 180.252 21.1773H184.05C188.117 21.1773 191.108 22.8242 191.108 26.5214C191.108 30.1514 187.747 31.9999 183.21 31.9999C178.302 31.9999 175.177 29.9497 175.177 27.2608C175.177 26.0845 175.647 25.0425 176.857 25.0425C177.933 25.0425 178.134 25.7484 178.269 26.7567C178.504 28.7733 179.848 29.8825 183.21 29.8825C185.898 29.8825 187.814 29.0758 187.814 27.0256C187.814 25.0761 186.369 24.3367 183.546 24.3367H179.445C176.454 24.3367 175.143 23.0931 175.143 21.0429C175.143 19.732 175.849 18.3204 177.395 17.5137C176.286 16.371 175.714 14.8249 175.714 13.1443C175.714 9.64882 178.067 6.85913 182.806 6.85913H190.436C191.108 6.85913 191.444 7.22885 191.444 7.90106C191.444 8.57328 191.108 8.97661 190.436 8.97661ZM182.806 8.97661C181.058 8.97661 178.941 9.91771 178.941 13.1443C178.941 16.371 181.058 17.3121 182.806 17.3121C184.52 17.3121 186.671 16.371 186.671 13.1443C186.671 9.91771 184.52 8.97661 182.806 8.97661Z" fill="#314F66"/>
</g>
</svg>
