<?xml version="1.0" encoding="utf-8"?>
<!-- Generator: Adobe Illustrator 27.7.0, SVG Export Plug-In . SVG Version: 6.00 Build 0)  -->
<svg version="1.1" id="Calque_1" xmlns="http://www.w3.org/2000/svg" xmlns:xlink="http://www.w3.org/1999/xlink" x="0px" y="0px"
	 viewBox="0 0 841.9 161.3" style="enable-background:new 0 0 841.9 161.3;" xml:space="preserve">
<style type="text/css">
	.st0{fill:#3541BF;}
</style>
<g>
	<path class="st0" d="M76.2,100.9c0,3.9,1.3,5.2,5.2,5.2h2.7c2.3,0,3.8,1.3,3.8,4s-1.4,4-3.8,4H56c-2.3,0-3.8-1.3-3.8-4s1.4-4,3.8-4
		h1.4c3.9,0,5.2-1.3,5.2-5.2v-65c0-3.4-1.3-4.7-5.2-4.7H56c-2.3,0-3.8-1.3-3.8-4s1.4-4,3.8-4h34.8c18.3,0,30.8,10.9,30.8,27
		s-12.5,28-30.8,28h-6c-2.3,0-3.8-1.2-3.8-4c0-2.7,1.4-4,3.8-4h3.5c14.3,0,19.2-10.1,19.2-19.9s-4.9-19-20.5-19h-5.7
		c-3.9,0-5.2,1.3-5.2,5.2V100.9z"/>
	<path class="st0" d="M182.9,103.5c-4.7,7.4-12.1,12.2-21.7,12.2c-13,0-23.5-7.3-23.5-22.8V61.6c0-3.1-1.9-4.4-4.6-4.4H133
		c-2.3,0-3.8-1.3-3.8-4s1.4-4,3.8-4h14.6c1.8,0,2.9,1,2.9,2.9v39.7c0,9.1,3.2,15.5,12.6,15.5c10.4,0,19-10.3,19-25.2V61.6
		c0-3.1-1.9-4.4-4.6-4.4h-0.1c-2.3,0-3.8-1.3-3.8-4s1.4-4,3.8-4h14.6c1.8,0,2.9,1,2.9,2.9v49.1c0,2.9,1,4.9,3.4,5.1h1.3
		c2.3-0.1,3.8,1.2,3.8,3.9s-1.4,4-3.8,4h-12.7c-1.7,0-2.9-1-3-2.7L182.9,103.5z"/>
	<path class="st0" d="M253,63.3c-3.6-3.2-5.5-5.2-10-5.2c-8.1,0-12.2,6.1-12.2,17.4v26.1c0,2.6,1.8,4.4,4.4,4.4c2.1,0,3.2,1.3,3.2,4
		s-1.4,4-3.8,4H214c-2.3,0-3.8-1.3-3.8-4s1.2-4,3.4-4c2.6,0,4.4-1.8,4.4-4.4v-40c0-2.6-1.8-4.4-4.4-4.4c-2.1,0-3.4-1.3-3.4-4
		s1.4-4,3.8-4h12.7c1.7,0,2.9,1,3,2.7l0.4,4.3c3.5-5.3,9-8.1,15.9-8.1c6.4,0,11.2,2.2,14.3,5.6C264.8,58.5,257.9,67.7,253,63.3z"/>
	<path class="st0" d="M338.5,110c0,2.9-1.4,4.2-3.8,4.2h-13.3c-1.8,0-2.9-0.9-3-2.7l-0.5-7c-6.1,8.4-14.3,11.3-23.1,11.3
		c-14.2,0-29.5-10.1-29.5-33.7c0-21.3,15.3-33.9,30-33.9c10.8,0,17.8,4.9,22,9.9V35.6c0-3.1-2-4.4-4.5-4.4h-0.1
		c-2.3,0-3.8-1.3-3.8-4s1.4-4,3.8-4h14.6c1.8,0,2.9,1,2.9,2.9v74.6c0,4,2.6,5.5,4.7,5.5C337.4,106.1,338.5,107.2,338.5,110z
		 M317.6,82c0-14.6-8.1-25.3-19.8-25.3c-13.4,0-19.2,10.8-19.2,25.3c0,14.3,5.9,25.1,19.2,25.1C309.5,107.1,317.6,96.3,317.6,82z"/>
	<path class="st0" d="M410.9,49.1c2.3,0,3.8,1.3,3.8,4s-1.2,4-3.2,4c-2.5,0-3.9,1.3-4.8,3.4l-28.5,63.7c-4.2,9.4-12,17.9-23.4,17.9
		c-6.4,0-13.1-2.2-16.9-6.2c-4.4-5.1,2.9-13.7,8.1-8.7c2.7,2.5,5.5,6,10.3,6c8.5,0,12.5-7.5,18.6-20.9l-25.3-52.5
		c-0.6-1.3-2-2.6-3.9-2.6c-2.2,0-3.5-1.3-3.5-4s1.4-4,3.8-4h20.7c2.3,0,3.8,1.3,3.8,4s-1,4-3.1,4s-3,1-3,2.6c0,0.8,0.3,1.8,0.8,2.9
		l16.5,34.5l15.1-34.5c0.5-1.2,0.9-2.3,0.9-3.1c0-1.4-0.9-2.3-3.1-2.3c-2.3,0-3.6-1.3-3.6-4s1.4-4,3.8-4
		C394.4,49.1,410.9,49.1,410.9,49.1z"/>
	<path class="st0" d="M520.4,108.6c-2.1,3.9-7.4,7.2-13.4,7.2c-7,0-13.9-3.9-14-14.3c-5.7,10.1-15.9,14.3-26.4,14.3
		c-15.9,0-28.2-9.8-28.2-25.2c0-12,6.2-22.4,19.4-26.7c-9.5-2.2-15.5-9.9-15.5-18.7c0-14.6,13.1-23.5,26.9-23.5
		c8.7,0,16.1,2.2,19.9,6.2c4.2,4.8-2.7,13-7.9,8.5c-3.6-3.2-6.8-6.4-12.5-6.4c-8.8,0-13.6,6-13.6,14.3c0,9.6,6.8,14.4,17.7,14.4h2.3
		c2.3,0,3.6,1.3,3.6,4.2s-1.3,4.2-3.6,4.2c-13.1,0-23.3,9.6-23.3,22c0,11.3,6.4,18.5,17.2,18.5c12.2,0,23.5-10.7,23.5-35.2v-5.3
		h-5.2c-2.3,0-3.6-1.4-3.6-4.2c0-2.6,1.3-3.9,3.6-3.9h5.9l3.2-12.4c0.4-1.3,1.2-2.1,2.6-2.1h3.9c1.4,0,2.3,0.9,2.3,2.3v12.1h9.2
		c2.3,0,3.6,1.2,3.6,3.9c0,2.9-1.3,4.2-3.6,4.2h-9.2v35.8c0,3.1,1.4,4.9,4,4.9c2.2,0,3.8-1.3,5.5-3.4c1.4-1.8,2.7-2.5,4.5-1.6
		C521.8,103.9,521.6,106.2,520.4,108.6z"/>
	<path class="st0" d="M574.3,100.9c0,3.9,1.3,5.2,5.2,5.2h1.4c2.3,0,3.8,1.3,3.8,4s-1.4,4-3.8,4h-26.8c-2.3,0-3.8-1.3-3.8-4
		s1.4-4,3.8-4h1.4c3.9,0,5.2-1.3,5.2-5.2V36.4c0-3.9-1.3-5.2-5.2-5.2h-1.4c-2.3,0-3.8-1.3-3.8-4s1.4-4,3.8-4h56.4
		c1.8,0,2.7,0.9,2.9,2.7l1,16.4c0.1,1.6-1,2.5-3,2.5s-3.1-1-3.9-3.2c-2.7-7.2-7.7-10.3-13.3-10.3h-14.8c-3.9,0-5.2,1.3-5.2,5.2
		L574.3,100.9L574.3,100.9z M582.9,74c-2.3,0-3.6-1.3-3.6-4s1.3-4,3.6-4h11c2.6,0,3.8-1.4,3.8-3.5c0-2.3,1.3-3.8,3.9-3.8
		c2.7,0,4,1.4,4,3.8v15.1c0,2.3-1.3,3.8-4,3.8c-2.6,0-3.9-1.4-3.9-3.8c0-2.5-1.2-3.5-3.8-3.5H582.9z"/>
	<path class="st0" d="M639.2,49.1c1.8,0,2.9,1,2.9,2.9v49.7c0,2.6,1.8,4.4,4.4,4.4c2.1,0,3.2,1.3,3.2,4s-1.4,4-3.8,4h-20.7
		c-2.3,0-3.8-1.3-3.8-4s1.2-4,3.4-4c2.6,0,4.4-1.8,4.4-4.4v-40c0-2.6-1.8-4.4-4.4-4.4c-2.1,0-3.4-1.3-3.4-4s1.4-4,3.8-4H639.2z
		 M627.4,29.9c0-4.5,3.8-8.3,8.5-8.3c4.5,0,8.3,3.8,8.3,8.3c0,4.7-3.8,8.5-8.3,8.5C631.2,38.3,627.4,34.6,627.4,29.9z"/>
	<path class="st0" d="M718.2,56.3h-8.3c4,4.3,6.2,9.9,6.2,16.1c0,13.4-10.4,24.3-27.4,24.3c-5.7,0-10.5-1-14.4-2.9
		c-2.5,1-3.9,2.7-3.9,5.2c0,3.4,2.6,4.4,8.5,4.4h14.7c15.7,0,27.3,6.4,27.3,20.7c0,14-13,21.2-30.5,21.2c-19,0-31.1-7.9-31.1-18.3
		c0-4.6,1.8-8.6,6.5-8.6c4.2,0,4.9,2.7,5.5,6.6c0.9,7.8,6.1,12.1,19.1,12.1c10.4,0,17.8-3.1,17.8-11.1c0-7.5-5.6-10.4-16.5-10.4
		h-15.9c-11.6,0-16.6-4.8-16.6-12.7c0-5.1,2.7-10.5,8.7-13.7c-4.3-4.4-6.5-10.4-6.5-16.9c0-13.5,9.1-24.3,27.4-24.3h29.5
		c2.6,0,3.9,1.4,3.9,4S720.8,56.3,718.2,56.3z M688.7,56.3c-6.8,0-15,3.6-15,16.1s8.2,16.1,15,16.1c6.6,0,15-3.6,15-16.1
		S695.4,56.3,688.7,56.3z"/>
	<path class="st0" d="M788.8,56.3h-8.3c4,4.3,6.2,9.9,6.2,16.1c0,13.4-10.4,24.3-27.4,24.3c-5.7,0-10.5-1-14.4-2.9
		c-2.5,1-3.9,2.7-3.9,5.2c0,3.4,2.6,4.4,8.5,4.4h14.7c15.7,0,27.3,6.4,27.3,20.7c0,14-13,21.2-30.5,21.2c-19,0-31.1-7.9-31.1-18.3
		c0-4.6,1.8-8.6,6.5-8.6c4.2,0,4.9,2.7,5.5,6.6c0.9,7.8,6.1,12.1,19.1,12.1c10.4,0,17.8-3.1,17.8-11.1c0-7.5-5.6-10.4-16.5-10.4
		h-15.9c-11.6,0-16.6-4.8-16.6-12.7c0-5.1,2.7-10.5,8.7-13.7c-4.3-4.4-6.5-10.4-6.5-16.9c0-13.5,9.1-24.3,27.4-24.3h29.5
		c2.6,0,3.9,1.4,3.9,4S791.4,56.3,788.8,56.3z M759.3,56.3c-6.8,0-15,3.6-15,16.1s8.2,16.1,15,16.1c6.6,0,15-3.6,15-16.1
		S766,56.3,759.3,56.3z"/>
</g>
</svg>
