<svg xmlns="http://www.w3.org/2000/svg" width="32.279" height="33.5"><g data-name="shopping cart" transform="translate(.25 .25)" fill="#fff" stroke="#fff" stroke-width=".5"><path data-name="Path 367" d="M30.823 5.916A3.962 3.962 0 0 0 27.7 4.353H5.757L5.7 3.844A4.179 4.179 0 0 0 1.658 0h-.3A1.406 1.406 0 0 0 0 1.451 1.406 1.406 0 0 0 1.357 2.9h.3a1.393 1.393 0 0 1 1.349 1.283L4.873 21.16a6.965 6.965 0 0 0 6.739 6.409h14.172a1.454 1.454 0 0 0 0-2.9H11.612a4.1 4.1 0 0 1-3.827-2.9h16.176a6.928 6.928 0 0 0 6.678-5.969L31.7 9.479a4.564 4.564 0 0 0-.882-3.564Zm-1.782 3.048-1.067 6.318a4.156 4.156 0 0 1-4.013 3.581H7.354L6.077 7.255H27.7a1.323 1.323 0 0 1 1.047.517 1.524 1.524 0 0 1 .294 1.192Z"/><circle data-name="Ellipse 1" cx="2" cy="2" r="2" transform="translate(7.359 29)"/><circle data-name="Ellipse 2" cx="2" cy="2" r="2" transform="translate(21.359 29)"/></g></svg>