<svg width="24" height="25" viewBox="0 0 24 25" fill="none" xmlns="http://www.w3.org/2000/svg">
<g id="delete">
<mask id="mask0_48_24546" style="mask-type:alpha" maskUnits="userSpaceOnUse" x="0" y="0" width="24" height="25">
<rect id="Bounding box" y="0.21582" width="24" height="24" fill="#D9D9D9"/>
</mask>
<g mask="url(#mask0_48_24546)">
<path id="delete_2" d="M7.3077 20.7158C6.80898 20.7158 6.38302 20.5392 6.02982 20.186C5.67661 19.8328 5.5 19.4069 5.5 18.9081V6.21587H4.5V4.7159H8.99997V3.8313H15V4.7159H19.5V6.21587H18.5V18.9081C18.5 19.4133 18.325 19.8408 17.975 20.1908C17.625 20.5408 17.1974 20.7158 16.6922 20.7158H7.3077ZM17 6.21587H6.99997V18.9081C6.99997 18.9979 7.02883 19.0716 7.08652 19.1293C7.14422 19.187 7.21795 19.2159 7.3077 19.2159H16.6922C16.7692 19.2159 16.8397 19.1838 16.9038 19.1197C16.9679 19.0556 17 18.9851 17 18.9081V6.21587ZM9.40385 17.2159H10.9038V8.21587H9.40385V17.2159ZM13.0961 17.2159H14.5961V8.21587H13.0961V17.2159Z" fill="#1C1B1F"/>
</g>
</g>
</svg>
